<?xml version="1.0" standalone="no"?>
<!DOCTYPE svg PUBLIC "-//W3C//DTD SVG 20010904//EN"
 "http://www.w3.org/TR/2001/REC-SVG-20010904/DTD/svg10.dtd">
<svg version="1.0" xmlns="http://www.w3.org/2000/svg"
 width="640.000000pt" height="1280.000000pt" viewBox="0 0 640.000000 1280.000000"
 preserveAspectRatio="xMidYMid meet">
<metadata>
Created by potrace 1.15, written by Peter Selinger 2001-2017
</metadata>
<g transform="translate(0.000000,1280.000000) scale(0.100000,-0.100000)"
fill="#286983" stroke="none">
<path d="M3005 12766 c-77 -39 -134 -81 -123 -91 3 -3 23 2 45 13 64 33 174
63 255 69 96 7 172 -7 307 -58 57 -22 106 -38 108 -35 8 8 -79 67 -147 100
-63 30 -70 31 -220 34 l-155 3 -70 -35z"/>
<path d="M3015 12620 c-33 -11 -93 -36 -133 -57 l-72 -37 -22 21 c-18 18 -19
24 -8 37 11 14 9 16 -13 16 -29 0 -52 -23 -43 -45 9 -25 121 -92 285 -171
l155 -74 -26 -28 c-13 -15 -34 -40 -44 -57 -28 -41 -184 -377 -184 -394 0 -22
23 2 75 80 26 38 63 83 82 100 l35 31 35 -34 c34 -32 35 -34 29 -93 -3 -33
-28 -143 -56 -245 -33 -121 -54 -219 -60 -285 -19 -217 -32 -572 -28 -808 1
-136 0 -247 -3 -247 -7 0 -85 108 -131 180 -60 96 -194 342 -230 425 -119 270
-177 570 -158 810 12 152 24 207 67 325 49 134 53 153 37 197 -20 58 -17 104
15 195 17 45 28 84 27 86 -2 1 -66 -34 -142 -79 -109 -64 -154 -98 -210 -155
-59 -62 -86 -81 -165 -118 -154 -72 -278 -104 -644 -166 -286 -49 -338 -67
-369 -128 -15 -29 -122 -455 -182 -726 l-38 -169 22 -41 c12 -22 22 -46 22
-53 0 -6 -23 -27 -50 -47 -56 -40 -61 -58 -25 -82 30 -20 31 -31 5 -86 -11
-24 -31 -106 -45 -183 -14 -77 -39 -212 -55 -300 -16 -88 -39 -243 -50 -345
-11 -102 -29 -252 -40 -335 -11 -82 -25 -221 -32 -307 -10 -141 -10 -164 6
-219 21 -76 73 -166 169 -296 165 -221 258 -313 494 -489 62 -46 117 -93 124
-105 6 -12 11 -47 11 -78 0 -48 -173 -1452 -187 -1521 -5 -25 -1 -27 122 -70
70 -24 129 -44 130 -45 2 -1 -2 -39 -7 -86 -34 -301 -50 -480 -50 -558 0 -96
35 -437 75 -721 13 -96 33 -274 44 -395 11 -121 34 -292 50 -380 16 -88 34
-189 40 -225 5 -36 26 -153 45 -260 65 -358 70 -410 67 -780 -2 -334 -9 -473
-36 -711 -46 -389 -48 -506 -16 -864 9 -93 8 -101 -10 -117 -11 -9 -24 -18
-30 -20 -7 -2 -7 -35 2 -108 7 -58 13 -159 13 -225 l1 -120 -47 -97 c-31 -63
-67 -118 -104 -157 -56 -60 -57 -61 -111 -61 -51 0 -60 -4 -107 -44 -28 -24
-92 -64 -142 -89 -99 -49 -128 -78 -144 -138 -7 -24 -18 -40 -31 -44 -11 -4
-24 -18 -30 -32 -21 -56 -20 -57 154 -106 223 -64 331 -76 473 -53 102 17 282
69 335 96 13 7 56 44 96 81 69 67 121 99 162 99 12 0 50 -12 85 -26 l64 -27
91 17 c115 21 193 50 235 87 32 28 33 30 41 146 5 65 9 183 10 263 2 132 5
154 33 241 68 210 92 404 92 740 0 145 6 253 20 368 38 301 40 374 25 665 -11
195 -15 516 -15 1145 0 481 2 872 4 870 3 -3 17 -85 31 -184 14 -99 57 -364
96 -590 175 -1031 238 -1417 243 -1500 4 -49 13 -164 21 -255 8 -91 19 -246
25 -345 5 -99 20 -247 32 -330 17 -115 22 -203 23 -375 1 -217 3 -229 32 -335
28 -102 32 -110 57 -113 14 -2 26 -8 26 -14 0 -5 5 -87 11 -181 9 -135 15
-176 27 -191 37 -41 211 -112 309 -125 47 -7 55 -5 75 16 26 28 77 31 114 6
14 -9 46 -43 71 -75 63 -83 72 -90 163 -127 57 -23 106 -35 173 -42 207 -20
313 -5 489 66 80 32 83 34 86 68 3 29 -2 39 -22 53 -16 10 -26 26 -26 41 0 49
-36 98 -112 148 -40 26 -82 60 -93 74 -40 52 -55 61 -94 61 -35 0 -44 6 -74
43 -71 87 -105 177 -146 391 -36 182 -49 304 -50 451 -2 269 -22 617 -56 975
-41 430 -48 634 -30 807 8 81 18 285 21 453 5 336 1 302 94 710 32 140 68 302
79 360 31 156 90 561 106 723 7 78 20 212 29 297 24 246 46 511 46 558 0 49
-5 46 109 61 46 6 100 19 120 28 32 16 36 22 33 53 -1 19 -25 373 -52 785 -27
413 -52 762 -55 777 -4 26 4 32 141 115 342 206 681 442 743 517 20 24 51 273
51 411 0 191 -33 631 -60 810 -5 33 -16 148 -25 255 -18 220 -34 309 -70 398
-14 34 -25 66 -25 71 0 5 14 14 31 20 26 9 29 14 24 33 -4 13 -21 37 -37 55
-37 39 -34 71 12 138 16 24 30 48 30 53 0 5 -22 21 -48 35 -43 23 -48 30 -45
54 3 15 -9 134 -26 263 -17 129 -37 296 -45 370 -9 74 -21 151 -27 170 -21 63
-88 140 -139 158 -14 6 -79 15 -145 21 -197 18 -476 73 -670 132 -153 47 -226
90 -335 196 -109 105 -337 281 -423 324 -97 50 -100 34 -13 -59 l77 -83 -7
-90 -7 -89 36 -32 c54 -50 61 -92 54 -351 -7 -274 -36 -503 -104 -802 -60
-269 -177 -551 -270 -655 l-50 -54 -6 304 c-4 168 -12 364 -17 435 -13 157
-55 400 -110 630 -22 94 -40 180 -40 193 0 13 12 34 26 48 25 26 26 26 46 8
11 -11 52 -65 90 -121 39 -57 71 -103 73 -103 2 0 -7 32 -21 72 -37 109 -125
283 -187 372 -31 44 -54 83 -52 87 3 4 17 10 32 14 16 3 82 33 148 67 123 61
228 133 233 159 3 16 -36 84 -44 76 -3 -3 1 -21 10 -40 13 -31 13 -36 -1 -41
-29 -11 -52 -6 -129 33 -110 55 -141 61 -294 60 -104 0 -149 -4 -195 -19z"/>
</g>
</svg>
